# xmcd
#
# Track frame offsets: 
#        182
#        13242
#        25977
#        38895
#        50545
#        60085
#        72362
#        82292
#        97852
#        110377
#
# Disc length: 1646 seconds
#
# Revision: 2
# Processed by: cddbd v1.4PL0 Copyright (c) Steve Scherf et al.
# Submitted via: ExactAudioCopy v0.90b3
#
DISCID=7d066c0a
DTITLE=Merle Haggard - Country Pride
DYEAR=1900
DGENRE=Country
TTITLE0=The Fightin' Side Of Me
TTITLE1=Sing Me Back Home
TTITLE2=I Take A Lot Of Pride In What I Am
TTITLE3=Workin' Man Blues
TTITLE4=I Think We're Living In The Good Old Days
TTITLE5=Okie From Muskogee
TTITLE6=Mama Tried
TTITLE7=Hungry Eyes
TTITLE8=The Roots Of My Raising
TTITLE9=A Working Man Can't Get Nowhere Today
EXTD=
EXTT0=
EXTT1=
EXTT2=
EXTT3=
EXTT4=
EXTT5=
EXTT6=
EXTT7=
EXTT8=
EXTT9=
PLAYORDER=
